HIERARCHY
ROOT joint_Root
{
	OFFSET 0.0 0.0 0.0
	CHANNELS 6 Xposition Yposition Zposition Zrotation Xrotation Yrotation 
	JOINT Hips
	{
		OFFSET -17.1583 93.1646 452.98
		CHANNELS 6 Xposition Yposition Zposition Zrotation Xrotation Yrotation 
		JOINT Spine
		{
			OFFSET 15.7357 0.0 0.0
			CHANNELS 6 Xposition Yposition Zposition Zrotation Xrotation Yrotation 
			JOINT Chest
			{
				OFFSET 8.98455 -0.406207 0.0
				CHANNELS 6 Xposition Yposition Zposition Zrotation Xrotation Yrotation 
				JOINT Neck
				{
					OFFSET 16.3773 0.0 0.0
					CHANNELS 6 Xposition Yposition Zposition Zrotation Xrotation Yrotation 
					JOINT Head
					{
						OFFSET 6.45672 0.0 0.0
						CHANNELS 6 Xposition Yposition Zposition Zrotation Xrotation Yrotation 
						End Site
						{
							OFFSET 0.0 0.0 0.0
						}
					}
				}
				JOINT Shoulder_L
				{
					OFFSET 12.9942 -0.242716 4.98039
					CHANNELS 6 Xposition Yposition Zposition Zrotation Xrotation Yrotation 
					JOINT UpperArm_L
					{
						OFFSET 5.34809 0.0 0.0
						CHANNELS 6 Xposition Yposition Zposition Zrotation Xrotation Yrotation 
						JOINT LowerArm_L
						{
							OFFSET 24.3286 1.87007e-05 0.0
							CHANNELS 6 Xposition Yposition Zposition Zrotation Xrotation Yrotation 
							JOINT Hand_L
							{
								OFFSET 22.2916 0.0 0.0
								CHANNELS 6 Xposition Yposition Zposition Zrotation Xrotation Yrotation 
								End Site
								{
									OFFSET 0.0 0.0 0.0
								}
							}
						}
					}
				}
				JOINT Shoulder_R
				{
					OFFSET 12.9945 -0.242716 -4.98039
					CHANNELS 6 Xposition Yposition Zposition Zrotation Xrotation Yrotation 
					JOINT UpperArm_R
					{
						OFFSET -5.34813 0.0 0.0
						CHANNELS 6 Xposition Yposition Zposition Zrotation Xrotation Yrotation 
						JOINT LowerArm_R
						{
							OFFSET -24.3289 0.000322201 0.0
							CHANNELS 6 Xposition Yposition Zposition Zrotation Xrotation Yrotation 
							JOINT Hand_R
							{
								OFFSET -22.2915 -0.000108084 0.0
								CHANNELS 6 Xposition Yposition Zposition Zrotation Xrotation Yrotation 
								End Site
								{
									OFFSET 0.0 0.0 0.0
								}
							}
						}
					}
				}
			}
		}
		JOINT UpperLeg_L
		{
			OFFSET -2.19248 -6.46944 0.0
			CHANNELS 6 Xposition Yposition Zposition Zrotation Xrotation Yrotation 
			JOINT LowerLeg_L
			{
				OFFSET 39.0811 0.0 -1.23785e-05
				CHANNELS 6 Xposition Yposition Zposition Zrotation Xrotation Yrotation 
				JOINT Foot_L
				{
					OFFSET 40.9854 0.0 -1.26872e-05
					CHANNELS 6 Xposition Yposition Zposition Zrotation Xrotation Yrotation 
					JOINT Toes_L
					{
						OFFSET 11.7543 0.0 0.0
						CHANNELS 6 Xposition Yposition Zposition Zrotation Xrotation Yrotation 
						End Site
						{
							OFFSET 0.0 0.0 0.0
						}
					}
				}
			}
		}
		JOINT UpperLeg_R
		{
			OFFSET -2.19251 6.46944 0.0
			CHANNELS 6 Xposition Yposition Zposition Zrotation Xrotation Yrotation 
			JOINT LowerLeg_R
			{
				OFFSET -39.0811 -0.00228153 -0.0401928
				CHANNELS 6 Xposition Yposition Zposition Zrotation Xrotation Yrotation 
				JOINT Foot_R
				{
					OFFSET -40.9854 0.0 0.0
					CHANNELS 6 Xposition Yposition Zposition Zrotation Xrotation Yrotation 
					JOINT Toes_R
					{
						OFFSET -11.7543 0.0 0.0
						CHANNELS 6 Xposition Yposition Zposition Zrotation Xrotation Yrotation 
						End Site
						{
							OFFSET 0.0 0.0 0.0
						}
					}
				}
			}
		}
	}
}
MOTION
Frames:	7
Frame Time:	0.0333333
0.000000 0.000000 0.000000 0.000000 0.000000 -0.000000 -2.497630 93.672400 1.278120 87.859600 4.746160 -6.449740 15.735700 0.000005 -0.000001 20.270100 89.193100 -18.624500 8.984550 -0.406207 -0.000000 -7.181850 -1.724940 3.189000 16.377300 -0.000001 -0.000001 -2.580600 0.065933 1.081780 6.456720 -0.000001 -0.000000 -9.885000 0.185369 1.443820 12.994200 -0.242716 4.980390 -90.040100 0.078029 -62.816000 5.348090 -0.000007 -0.000001 -69.324700 -57.656800 -93.846600 24.328600 0.000019 0.000005 0.000043 -33.799400 -0.000000 22.291600 -0.000001 0.000005 49.302300 3.030200 36.735000 12.994500 -0.242716 -4.980390 91.975800 -3.143170 -57.823600 -5.348130 -0.000001 -0.000004 -62.766700 -58.666700 -92.247900 -24.328900 0.000322 -0.000009 -0.000996 -38.975000 -0.000239 -22.291500 -0.000108 -0.000004 37.871800 4.338880 19.187500 -2.192480 -6.469440 -0.000000 -172.524000 -8.644550 -4.490050 39.081100 -0.000007 -0.000012 -0.020856 0.157667 7.534890 40.985400 -0.000006 -0.000013 -6.616430 16.310000 -64.157100 11.754300 -0.000000 0.000003 -0.001872 0.194733 -8.676460 -2.192510 6.469440 -0.000001 179.743000 11.500900 179.715000 -39.081100 -0.002282 -0.040193 0.005065 -0.040738 2.408560 -40.985400 0.000008 0.000006 -8.833450 6.179430 -62.242100 -11.754300 -0.000006 -0.000006 -0.010195 0.272756 -5.491650
0.000000 0.000000 0.000000 0.000000 0.000000 -0.000000 -2.503320 93.653900 1.408160 87.850800 4.652970 -6.633990 15.735700 0.000005 -0.000001 11.965900 89.278400 -10.281000 8.984550 -0.406207 -0.000000 -7.442250 -1.631840 3.270230 16.377300 -0.000001 -0.000001 -2.960250 -0.129586 1.302680 6.456720 -0.000001 -0.000000 -9.996280 -0.018067 1.417310 12.994200 -0.242716 4.980390 -90.082500 0.160258 -62.762600 5.348090 -0.000007 -0.000001 -67.331000 -59.365600 -92.751400 24.328600 0.000019 0.000005 0.000830 -31.414800 -0.000000 22.291600 -0.000001 0.000005 48.448500 3.051280 36.482200 12.994500 -0.242716 -4.980390 91.905700 -3.021830 -57.741100 -5.348130 -0.000001 -0.000004 -59.668000 -60.536200 -90.601000 -24.328900 0.000322 -0.000009 -0.001122 -37.480400 -0.000227 -22.291500 -0.000108 -0.000004 39.001500 4.394780 18.313900 -2.192480 -6.469440 -0.000000 -172.529000 -8.650700 -4.620690 39.081100 -0.000007 -0.000012 -0.022225 0.165968 7.626890 40.985400 -0.000006 -0.000013 -6.659970 16.225700 -64.237400 11.754300 -0.000000 0.000003 -0.001550 0.190567 -8.845860 -2.192510 6.469440 -0.000001 179.755000 11.612900 179.761000 -39.081100 -0.002282 -0.040193 0.004933 -0.043032 2.103610 -40.985400 0.000008 0.000006 -8.973190 6.420900 -62.094000 -11.754300 -0.000006 -0.000006 -0.009914 0.270663 -5.577260
0.000000 0.000000 0.000000 0.000000 0.000000 -0.000000 -2.512690 93.674800 1.508320 87.861000 4.508550 -6.902650 15.735700 0.000005 -0.000001 -1.001260 89.316200 2.710970 8.984550 -0.406207 -0.000000 -7.765470 -1.595300 3.318340 16.377300 -0.000001 -0.000001 -3.335600 -0.387347 1.353730 6.456720 -0.000001 -0.000000 -10.246900 -0.325044 1.165920 12.994200 -0.242716 4.980390 -89.997400 -0.004998 -62.534100 5.348090 -0.000007 -0.000001 -64.012400 -61.034000 -91.909100 24.328600 0.000019 0.000005 0.001461 -26.149300 0.000000 22.291600 -0.000001 0.000005 47.352700 3.227050 34.361300 12.994500 -0.242716 -4.980390 91.947100 -3.087410 -57.740000 -5.348130 -0.000001 -0.000004 -58.457100 -62.579000 -91.974800 -24.328900 0.000322 -0.000009 -0.001023 -37.507200 -0.000227 -22.291500 -0.000108 -0.000004 40.789500 4.536650 15.990600 -2.192480 -6.469440 -0.000000 -172.513000 -8.735430 -4.433390 39.081100 -0.000007 -0.000012 -0.019912 0.164728 6.891990 40.985400 -0.000006 -0.000013 -7.173480 16.177300 -63.805500 11.754300 -0.000000 0.000003 -0.001658 0.191975 -8.788610 -2.192510 6.469440 -0.000001 179.792000 11.555400 179.663000 -39.081100 -0.002282 -0.040193 0.004862 -0.046406 1.863580 -40.985400 0.000008 0.000006 -8.948810 6.450850 -62.029600 -11.754300 -0.000006 -0.000006 -0.010006 0.271347 -5.549270
0.000000 0.000000 0.000000 0.000000 0.000000 -0.000000 -2.529080 93.678800 1.609900 87.873700 4.291510 -7.072730 15.735700 0.000005 -0.000001 -12.707300 89.318200 14.418100 8.984550 -0.406207 -0.000000 -8.042000 -1.562300 3.319270 16.377300 -0.000001 -0.000001 -3.689980 -0.425148 1.100520 6.456720 -0.000001 -0.000000 -10.562300 -0.621073 1.109290 12.994200 -0.242716 4.980390 -89.841700 -0.299946 -62.181500 5.348090 -0.000007 -0.000001 -61.957400 -62.487100 -93.459600 24.328600 0.000019 0.000005 0.001320 -19.247900 0.000001 22.291600 -0.000001 0.000005 46.896700 3.411510 32.066100 12.994500 -0.242716 -4.980390 92.022800 -3.205120 -57.719100 -5.348130 -0.000001 -0.000004 -60.807300 -64.313400 -97.373800 -24.328900 0.000322 -0.000009 -0.000617 -35.541000 -0.000212 -22.291500 -0.000108 -0.000004 40.715200 4.685850 13.410900 -2.192480 -6.469440 -0.000000 -172.519000 -9.098250 -4.286090 39.081100 -0.000007 -0.000012 -0.018757 0.165759 6.455650 40.985400 -0.000006 -0.000013 -7.606380 16.304600 -63.415100 11.754300 -0.000000 0.000003 -0.001515 0.190106 -8.864570 -2.192510 6.469440 -0.000001 179.799000 11.541400 179.574000 -39.081100 -0.002282 -0.040193 0.004844 -0.047904 1.783800 -40.985400 0.000008 0.000006 -8.844070 6.653230 -61.979000 -11.754300 -0.000006 -0.000006 -0.010060 0.271756 -5.532540
0.000000 0.000000 0.000000 0.000000 0.000000 -0.000000 -2.542270 93.693100 1.698690 87.876400 4.018770 -7.171310 15.735700 0.000005 -0.000001 -21.772200 89.271600 23.485100 8.984550 -0.406207 -0.000000 -8.282040 -1.588430 3.318960 16.377300 -0.000001 -0.000001 -3.834370 -0.216074 0.793660 6.456720 -0.000001 -0.000000 -10.891200 -0.577768 1.045810 12.994200 -0.242716 4.980390 -89.670300 -0.613778 -61.753900 5.348090 -0.000007 -0.000001 -61.547800 -63.601300 -97.318700 24.328600 0.000019 0.000005 0.001347 -13.423800 0.000001 22.291600 -0.000001 0.000005 46.795600 3.603040 29.616700 12.994500 -0.242716 -4.980390 92.161800 -3.422040 -57.690800 -5.348130 -0.000001 -0.000004 -62.785500 -65.176500 -102.977000 -24.328900 0.000322 -0.000009 -0.000009 -32.479600 -0.000190 -22.291500 -0.000108 -0.000004 41.042800 4.827620 10.807100 -2.192480 -6.469440 -0.000000 -172.491000 -9.262900 -3.869300 39.081100 -0.000007 -0.000012 -0.015379 0.155417 5.650940 40.985400 -0.000006 -0.000013 -8.001860 16.231400 -62.960700 11.754300 -0.000000 0.000003 -0.001695 0.192464 -8.768720 -2.192510 6.469440 -0.000001 179.788000 11.431100 179.505000 -39.081100 -0.002282 -0.040193 0.004948 -0.050828 1.797640 -40.985400 0.000008 0.000006 -8.910880 6.793700 -61.954900 -11.754300 -0.000006 -0.000006 -0.010022 0.271467 -5.544360
0.000000 0.000000 0.000000 0.000000 0.000000 -0.000000 -2.555740 93.680000 1.791840 87.831500 3.630090 -7.113120 15.735700 0.000005 -0.000001 -27.454600 89.262600 29.160300 8.984550 -0.406207 -0.000000 -8.422360 -1.545370 3.305820 16.377300 -0.000001 -0.000001 -3.737160 0.246800 0.463994 6.456720 -0.000001 -0.000000 -11.164000 -0.319121 1.238030 12.994200 -0.242716 4.980390 -89.528000 -0.862231 -61.303100 5.348090 -0.000007 -0.000001 -62.059500 -63.940900 -102.476000 24.328600 0.000019 0.000005 -0.151009 -7.510610 -1.174910 22.291600 -0.000001 0.000005 47.097700 3.667410 28.773600 12.994500 -0.242716 -4.980390 92.281300 -3.626900 -57.798700 -5.348130 -0.000001 -0.000004 -66.264700 -65.051800 -109.820000 -24.328900 0.000322 -0.000009 -0.196050 -28.790600 -0.409719 -22.291500 -0.000108 -0.000004 42.190600 4.962090 8.120010 -2.192480 -6.469440 -0.000000 -172.451000 -9.647690 -3.681520 39.081100 -0.000007 -0.000012 -0.015260 0.153450 5.678800 40.985400 -0.000006 -0.000013 -8.014600 16.252900 -63.011500 11.754300 -0.000000 0.000003 -0.001482 0.189657 -8.882840 -2.192510 6.469440 -0.000001 179.774000 11.118500 179.513000 -39.081100 -0.002282 -0.040193 0.005027 -0.049234 1.948210 -40.985400 0.000008 0.000006 -8.865370 6.917130 -62.008000 -11.754300 -0.000006 -0.000006 -0.009709 0.269116 -5.640520
0.000000 0.000000 0.000000 0.000000 0.000000 -0.000000 -2.578170 93.651500 1.876590 87.759000 3.208350 -6.850380 15.735700 0.000005 -0.000001 -31.020300 89.323500 32.720300 8.984550 -0.406207 -0.000000 -8.441630 -1.396040 3.305160 16.377300 -0.000001 -0.000001 -3.508640 0.746814 0.158493 6.456720 -0.000001 -0.000000 -11.176500 0.002473 1.392330 12.994200 -0.242716 4.980390 -89.369100 -1.138480 -61.001700 5.348090 -0.000007 -0.000001 -62.429400 -63.402200 -107.326000 24.328600 0.000019 0.000005 -0.117327 -1.642890 -4.191750 22.291600 -0.000001 0.000005 46.991300 3.757430 27.573400 12.994500 -0.242716 -4.980390 92.382400 -3.817660 -58.000100 -5.348130 -0.000001 -0.000004 -70.252900 -63.763000 -116.906000 -24.328900 0.000322 -0.000009 -2.235280 -23.898900 -5.509690 -22.291500 -0.000108 -0.000004 42.381200 5.086140 5.427130 -2.192480 -6.469440 -0.000000 -172.368000 -9.906390 -3.490210 39.081100 -0.000007 -0.000012 -0.016361 0.152119 6.138420 40.985400 -0.000006 -0.000013 -7.691750 16.141800 -63.452000 11.754300 -0.000000 0.000003 -0.001486 0.189715 -8.880460 -2.192510 6.469440 -0.000001 179.747000 10.990900 179.664000 -39.081100 -0.002282 -0.040193 0.005116 -0.045199 2.234770 -40.985400 0.000008 0.000006 -8.968230 7.208870 -62.136700 -11.754300 -0.000006 -0.000006 -0.010083 0.271926 -5.525580
